<svg width="80" height="80" viewBox="0 0 80 80" fill="none" xmlns="http://www.w3.org/2000/svg">
<g clip-path="url(#clip0_2027_3297)">
<path d="M79.04 23.3599H0.96C0.432 23.3599 0 22.9279 0 22.3999C0 21.8719 0.432 21.4399 0.96 21.4399H79.04C79.568 21.4399 80 21.8719 80 22.3999C80 22.9279 79.568 23.3599 79.04 23.3599ZM79.04 29.7599H0.96C0.432 29.7599 0 29.3279 0 28.7999C0 28.2719 0.432 27.8399 0.96 27.8399H79.04C79.568 27.8399 80 28.2719 80 28.7999C80 29.3279 79.568 29.7599 79.04 29.7599Z" fill="#F9383D"/>
<path d="M75.84 67.2001H4.16C1.872 67.2001 0 65.3281 0 63.0401V16.96C0 14.672 1.872 12.8 4.16 12.8H75.84C78.128 12.8 80 14.672 80 16.96V63.0401C80 65.3281 78.128 67.2001 75.84 67.2001ZM4.16 14.72C2.928 14.72 1.92 15.728 1.92 16.96V63.0401C1.92 64.2721 2.928 65.2801 4.16 65.2801H75.84C77.072 65.2801 78.08 64.2721 78.08 63.0401V16.96C78.08 15.728 77.072 14.72 75.84 14.72H4.16Z" fill="#011546"/>
<path d="M44.704 46.432C44.176 46.432 43.744 46 43.744 45.472V40.832C43.744 38.768 42.064 37.088 40 37.088C37.936 37.088 36.256 38.768 36.256 40.832V45.472C36.256 46 35.824 46.432 35.296 46.432C34.768 46.432 34.336 46 34.336 45.472V40.832C34.336 37.712 36.88 35.168 40 35.168C43.12 35.168 45.664 37.712 45.664 40.832V45.472C45.664 46 45.232 46.432 44.704 46.432Z" fill="#011546"/>
<path d="M48.32 60.768H31.68C31.152 60.768 30.72 60.336 30.72 59.808V45.472C30.72 44.944 31.152 44.512 31.68 44.512H48.32C48.848 44.512 49.28 44.944 49.28 45.472V59.808C49.28 60.336 48.864 60.768 48.32 60.768ZM32.64 58.848H47.36V46.432H32.64V58.848Z" fill="#011546"/>
<path d="M41.28 55.5361H38.72C38.496 55.5361 38.352 55.3121 38.432 55.1041L39.12 53.2641C39.168 53.1361 39.12 52.9761 39.008 52.8961C38.512 52.5441 38.224 51.9521 38.288 51.2961C38.368 50.4961 39.024 49.8401 39.808 49.7601C40.848 49.6481 41.744 50.4641 41.744 51.4881C41.744 52.0641 41.456 52.5761 41.024 52.8961C40.912 52.9761 40.864 53.1361 40.912 53.2641L41.584 55.1201C41.664 55.3121 41.504 55.5361 41.28 55.5361Z" fill="#011546"/>
</g>
<defs>
<clipPath id="clip0_2027_3297">
<rect width="80" height="80" fill="white"/>
</clipPath>
</defs>
</svg>
