<svg width="80" height="80" viewBox="0 0 80 80" fill="none" xmlns="http://www.w3.org/2000/svg">
<g clip-path="url(#clip0_2027_3301)">
<path d="M63.0401 79.9839H16.96C14.672 79.9839 12.8 78.1119 12.8 75.8239V4.14389C12.8 1.85589 14.672 -0.0161133 16.96 -0.0161133H48.0001C48.2561 -0.0161133 48.4961 0.0798867 48.6721 0.271887L66.9121 18.5119C67.0881 18.6879 67.2001 18.9439 67.2001 19.1839V75.8239C67.2001 78.1119 65.3281 79.9839 63.0401 79.9839ZM16.96 1.90389C15.728 1.90389 14.72 2.91189 14.72 4.14389V75.8239C14.72 77.0559 15.728 78.0639 16.96 78.0639H63.0401C64.2721 78.0639 65.2801 77.0559 65.2801 75.8239V19.5839L47.6001 1.90389H16.96Z" fill="#011546"/>
<path d="M66.24 20.1439H49.6C48.192 20.1439 47.04 18.9919 47.04 17.5839V0.943887C47.04 0.415887 47.472 -0.0161133 48 -0.0161133C48.528 -0.0161133 48.96 0.415887 48.96 0.943887V17.5839C48.96 17.9359 49.248 18.2239 49.6 18.2239H66.24C66.768 18.2239 67.2 18.6559 67.2 19.1839C67.2 19.7119 66.768 20.1439 66.24 20.1439Z" fill="#011546"/>
<path d="M37.6001 20.1439H23.5201C22.9921 20.1439 22.5601 19.7119 22.5601 19.1839C22.5601 18.6559 22.9921 18.2239 23.5201 18.2239H37.6001C38.1281 18.2239 38.5601 18.6559 38.5601 19.1839C38.5601 19.7119 38.1281 20.1439 37.6001 20.1439ZM56.8001 32.9439H23.5201C22.9921 32.9439 22.5601 32.5119 22.5601 31.9839C22.5601 31.4559 22.9921 31.0239 23.5201 31.0239H56.8001C57.3281 31.0239 57.7601 31.4559 57.7601 31.9839C57.7601 32.5119 57.3281 32.9439 56.8001 32.9439ZM56.8001 45.7439H23.5201C22.9921 45.7439 22.5601 45.3119 22.5601 44.7839C22.5601 44.2559 22.9921 43.8239 23.5201 43.8239H56.8001C57.3281 43.8239 57.7601 44.2559 57.7601 44.7839C57.7601 45.3119 57.3281 45.7439 56.8001 45.7439ZM56.8001 58.5439H23.5201C22.9921 58.5439 22.5601 58.1119 22.5601 57.5839C22.5601 57.0559 22.9921 56.6239 23.5201 56.6239H56.8001C57.3281 56.6239 57.7601 57.0559 57.7601 57.5839C57.7601 58.1119 57.3281 58.5439 56.8001 58.5439Z" fill="#F9383D"/>
</g>
<defs>
<clipPath id="clip0_2027_3301">
<rect width="80" height="80" fill="white"/>
</clipPath>
</defs>
</svg>
