<svg width="80" height="80" viewBox="0 0 80 80" fill="none" xmlns="http://www.w3.org/2000/svg">
<g clip-path="url(#clip0_2027_3303)">
<path d="M40 41.5839C39.472 41.5839 39.04 41.1519 39.04 40.6239V20.1439C39.04 19.6159 39.472 19.1839 40 19.1839C40.528 19.1839 40.96 19.6159 40.96 20.1439V40.6239C40.96 41.1519 40.528 41.5839 40 41.5839ZM11.84 22.3839C11.504 22.3839 11.168 22.1919 10.992 21.8719L0.112012 1.39186C-0.143988 0.927864 0.0480123 0.335864 0.512012 0.0958637C0.976012 -0.160136 1.55201 0.0158636 1.80801 0.495864L12.688 20.9759C12.944 21.4399 12.752 22.0319 12.288 22.2719C12.144 22.3359 12 22.3839 11.84 22.3839ZM61.76 35.1839C61.616 35.1839 61.456 35.1519 61.312 35.0719C60.848 34.8319 60.656 34.2399 60.912 33.7759L74.992 6.89586C75.232 6.43186 75.824 6.23986 76.288 6.49586C76.752 6.73586 76.944 7.32786 76.688 7.79186L62.608 34.6719C62.432 34.9919 62.112 35.1839 61.76 35.1839Z" fill="#011546"/>
<path d="M51.2 44.7839C48.56 44.7839 46.4 42.6239 46.4 39.9839C46.4 37.3439 48.56 35.1839 51.2 35.1839C53.84 35.1839 56 37.3439 56 39.9839C56 42.6239 53.84 44.7839 51.2 44.7839ZM51.2 37.1039C49.616 37.1039 48.32 38.3999 48.32 39.9839C48.32 41.5679 49.616 42.8639 51.2 42.8639C52.784 42.8639 54.08 41.5679 54.08 39.9839C54.08 38.3999 52.784 37.1039 51.2 37.1039ZM60.8 9.58389C58.16 9.58389 56 7.42389 56 4.78389C56 2.14389 58.16 -0.0161133 60.8 -0.0161133C63.44 -0.0161133 65.6 2.14389 65.6 4.78389C65.6 7.42389 63.44 9.58389 60.8 9.58389ZM60.8 1.90389C59.216 1.90389 57.92 3.19989 57.92 4.78389C57.92 6.36789 59.216 7.66389 60.8 7.66389C62.384 7.66389 63.68 6.36789 63.68 4.78389C63.68 3.19989 62.384 1.90389 60.8 1.90389ZM20.8 15.9839C18.16 15.9839 16 13.8239 16 11.1839C16 8.54389 18.16 6.38389 20.8 6.38389C23.44 6.38389 25.6 8.54389 25.6 11.1839C25.6 13.8239 23.44 15.9839 20.8 15.9839ZM20.8 8.30389C19.216 8.30389 17.92 9.59989 17.92 11.1839C17.92 12.7679 19.216 14.0639 20.8 14.0639C22.384 14.0639 23.68 12.7679 23.68 11.1839C23.68 9.59989 22.384 8.30389 20.8 8.30389ZM25.584 40.0159C22.944 40.0159 20.784 37.8559 20.784 35.2159C20.784 32.5759 22.944 30.4159 25.584 30.4159C28.224 30.4159 30.384 32.5759 30.384 35.2159C30.384 37.8559 28.224 40.0159 25.584 40.0159ZM25.584 32.3359C24 32.3359 22.704 33.6319 22.704 35.2159C22.704 36.7999 24 38.0959 25.584 38.0959C27.168 38.0959 28.464 36.7999 28.464 35.2159C28.464 33.6319 27.168 32.3359 25.584 32.3359ZM36.464 57.6799C36.336 57.6799 36.208 57.6479 36.096 57.5999C35.6 57.3919 35.376 56.8319 35.584 56.3359C36.336 54.5599 38.08 53.4079 40 53.4079C41.92 53.4079 43.648 54.5439 44.416 56.3039C44.624 56.7839 44.4 57.3599 43.92 57.5679C43.44 57.7759 42.864 57.5519 42.656 57.0719C42.192 56.0159 41.168 55.3279 40.016 55.3279C38.848 55.3279 37.808 56.0159 37.36 57.0879C37.184 57.4719 36.832 57.6799 36.464 57.6799Z" fill="#F9383D"/>
<path d="M75.8399 79.9839H4.15995C3.63195 79.9839 3.19995 79.5519 3.19995 79.0239V38.3839C3.19995 38.0799 3.34395 37.8079 3.56795 37.6319L39.408 9.79189C39.76 9.51989 40.2399 9.51989 40.5919 9.79189L76.432 37.6319C76.672 37.8079 76.7999 38.0959 76.7999 38.3839V79.0239C76.7999 79.5519 76.3679 79.9839 75.8399 79.9839ZM5.11995 78.0639H74.8799V38.8479L40 11.7599L5.11995 38.8479V78.0639Z" fill="#011546"/>
<path d="M75.8401 79.9839C75.6801 79.9839 75.5201 79.9359 75.3601 79.8559L3.68007 39.2159C3.21607 38.9599 3.05607 38.3679 3.31207 37.9039C3.56807 37.4399 4.16007 37.2799 4.62407 37.5359L76.3041 78.1759C76.7681 78.4319 76.9281 79.0239 76.6721 79.4879C76.4961 79.8079 76.1761 79.9839 75.8401 79.9839Z" fill="#011546"/>
<path d="M4.16006 79.9841C3.82406 79.9841 3.50406 79.8081 3.32806 79.5041C3.07206 79.0401 3.23206 78.4641 3.69606 78.1921L75.3761 37.5521C75.8401 37.2961 76.4161 37.4561 76.6881 37.9201C76.9441 38.3841 76.7841 38.9601 76.3201 39.2321L4.64006 79.8721C4.48006 79.9361 4.32006 79.9841 4.16006 79.9841Z" fill="#011546"/>
</g>
<defs>
<clipPath id="clip0_2027_3303">
<rect width="80" height="80" fill="white"/>
</clipPath>
</defs>
</svg>
