<svg width="80" height="80" viewBox="0 0 80 80" fill="none" xmlns="http://www.w3.org/2000/svg">
<g clip-path="url(#clip0_2027_3335)">
<path d="M69.44 79.984C69.184 79.984 68.944 79.888 68.768 79.696L56 66.944L43.232 79.68C42.96 79.952 42.544 80.032 42.192 79.888C41.84 79.744 41.6 79.392 41.6 79.008V42.688C41.6 42.16 42.032 41.728 42.56 41.728C43.088 41.728 43.52 42.16 43.52 42.688V76.672L55.328 64.896C55.696 64.528 56.304 64.528 56.688 64.896L68.496 76.704V42.688C68.496 42.16 68.928 41.728 69.456 41.728C69.984 41.728 70.416 42.16 70.416 42.688V79.008C70.416 79.392 70.176 79.744 69.824 79.888C69.696 79.952 69.568 79.984 69.44 79.984Z" fill="#011546"/>
<path d="M56 47.9839C42.768 47.9839 32 37.2159 32 23.9839C32 10.7519 42.768 -0.0161133 56 -0.0161133C69.232 -0.0161133 80 10.7519 80 23.9839C80 37.2159 69.232 47.9839 56 47.9839ZM56 1.90389C43.824 1.90389 33.92 11.8079 33.92 23.9839C33.92 36.1599 43.824 46.0639 56 46.0639C68.176 46.0639 78.08 36.1599 78.08 23.9839C78.08 11.8079 68.176 1.90389 56 1.90389Z" fill="#011546"/>
<path d="M56 40.4319C46.928 40.4319 39.552 33.0559 39.552 23.9839C39.552 14.9119 46.928 7.53589 56 7.53589C65.072 7.53589 72.448 14.9119 72.448 23.9839C72.448 33.0559 65.072 40.4319 56 40.4319ZM56 9.45589C47.984 9.45589 41.472 15.9679 41.472 23.9839C41.472 31.9999 47.984 38.5119 56 38.5119C64.016 38.5119 70.528 31.9999 70.528 23.9839C70.528 15.9679 64.016 9.45589 56 9.45589Z" fill="#F9383D"/>
<path d="M58.64 25.8399H50.72C50.192 25.8399 49.76 25.4079 49.76 24.8799C49.76 24.3519 50.192 23.9199 50.72 23.9199H58.656C59.184 23.9199 59.616 24.3519 59.616 24.8799C59.616 25.4079 59.168 25.8399 58.64 25.8399Z" fill="#011546"/>
<path d="M61.28 32.88H50.704C50.288 32.88 49.92 32.608 49.792 32.224C49.664 31.824 49.808 31.392 50.144 31.152C50.464 30.912 51.584 30.048 52.576 28.784C53.504 27.6 54.304 26.224 53.808 24.144C53.808 24.128 53.792 24.096 53.792 24.08L53.776 23.984C53.648 23.52 53.472 23.168 53.248 22.752L53.184 22.624C52.832 21.984 52.4 21.184 52.4 19.936C52.4 17.264 54.528 15.104 57.136 15.104C58.832 15.104 60.4 16.032 61.248 17.536C61.504 18 61.344 18.576 60.88 18.848C60.416 19.104 59.84 18.944 59.568 18.48C59.072 17.584 58.128 17.024 57.136 17.024C55.584 17.024 54.32 18.336 54.32 19.936C54.32 20.688 54.56 21.136 54.88 21.696L54.944 21.824C55.216 22.336 55.472 22.848 55.648 23.536C55.648 23.568 55.664 23.584 55.664 23.616L55.68 23.728C56.352 26.608 55.184 28.576 54.08 29.968C53.792 30.32 53.504 30.656 53.216 30.96H61.28C61.808 30.96 62.24 31.392 62.24 31.92C62.24 32.448 61.824 32.88 61.28 32.88Z" fill="#011546"/>
<path d="M19.488 15.1839C18.96 15.1839 18.528 14.7519 18.528 14.2239V7.63189C18.528 4.47989 15.952 1.90389 12.8 1.90389C9.64798 1.90389 7.07198 4.46389 7.07198 7.63189V14.2239C7.07198 14.7519 6.63998 15.1839 6.11198 15.1839C5.58398 15.1839 5.15198 14.7519 5.15198 14.2239V7.63189C5.15198 3.40789 8.57598 -0.0161133 12.8 -0.0161133C17.024 -0.0161133 20.448 3.40789 20.448 7.63189V14.2239C20.448 14.7519 20.016 15.1839 19.488 15.1839Z" fill="#F9383D"/>
<path d="M24.64 35.5679H0.96C0.432 35.5679 0 35.1359 0 34.6079V14.2239C0 13.6959 0.432 13.2639 0.96 13.2639H24.64C25.168 13.2639 25.6 13.6959 25.6 14.2239V34.6079C25.6 35.1359 25.168 35.5679 24.64 35.5679ZM1.92 33.6479H23.68V15.1839H1.92V33.6479Z" fill="#F9383D"/>
<path d="M15.264 29.488H10.336C10.016 29.488 9.72801 29.328 9.55201 29.072C9.37601 28.816 9.32801 28.48 9.44001 28.192L10.512 25.312C9.80801 24.672 9.39201 23.76 9.39201 22.768C9.39201 20.88 10.928 19.344 12.816 19.344C14.704 19.344 16.24 20.88 16.24 22.768C16.24 23.744 15.824 24.64 15.136 25.296L16.176 28.208C16.288 28.496 16.24 28.832 16.064 29.088C15.888 29.344 15.584 29.488 15.264 29.488ZM11.712 27.568H13.904L13.072 25.264C12.9947 25.0479 12.9975 24.8113 13.0796 24.597C13.1618 24.3827 13.3181 24.205 13.52 24.096C14 23.824 14.304 23.328 14.304 22.768C14.304 21.936 13.632 21.264 12.8 21.264C11.968 21.264 11.296 21.936 11.296 22.768C11.296 23.328 11.6 23.84 12.112 24.096C12.544 24.32 12.736 24.832 12.56 25.28L11.712 27.568Z" fill="#F9383D"/>
</g>
<defs>
<clipPath id="clip0_2027_3335">
<rect width="80" height="80" fill="white"/>
</clipPath>
</defs>
</svg>
