<svg width="80" height="80" viewBox="0 0 80 80" fill="none" xmlns="http://www.w3.org/2000/svg">
<g clip-path="url(#clip0_2027_3375)">
<path d="M40 80C29.312 80 19.264 75.84 11.712 68.288C4.16 60.736 0 50.688 0 40C0 29.312 4.16 19.264 11.712 11.712C19.264 4.16 29.312 0 40 0C50.688 0 60.736 4.16 68.288 11.712C75.84 19.264 80 29.312 80 40C80 50.688 75.84 60.736 68.288 68.288C60.736 75.84 50.688 80 40 80ZM40 1.92C29.824 1.92 20.272 5.888 13.072 13.072C5.888 20.272 1.92 29.824 1.92 40C1.92 50.176 5.888 59.728 13.072 66.928C20.272 74.128 29.824 78.08 40 78.08C50.176 78.08 59.728 74.112 66.928 66.928C74.128 59.728 78.08 50.176 78.08 40C78.08 29.824 74.112 20.272 66.928 13.072C59.728 5.888 50.176 1.92 40 1.92Z" fill="#011546"/>
<path d="M32.16 69.3599C31.888 69.3599 31.616 69.3119 31.344 69.2319C25.312 67.4079 19.904 63.6319 16.096 58.5759C12.16 53.3599 10.08 47.1199 10.08 40.5759C10.08 39.1039 10.192 37.6159 10.416 36.1599C10.528 35.4079 11.008 34.7679 11.696 34.4479C12.384 34.1119 13.184 34.1599 13.84 34.5439L26.304 41.9039C31.04 44.7039 34.256 49.4559 34.912 54.5919C35.008 55.3119 35.056 56.0639 35.056 56.7839V66.4799C35.056 67.4079 34.624 68.2399 33.888 68.7999C33.344 69.1679 32.752 69.3599 32.16 69.3599ZM12.656 36.1279C12.592 36.1279 12.528 36.1439 12.496 36.1599C12.432 36.1919 12.32 36.2719 12.304 36.4319C12.096 37.8079 12 39.1999 12 40.5759C12 46.7199 13.952 52.5439 17.632 57.4239C21.2 62.1439 26.272 65.6959 31.904 67.3919C32.176 67.4719 32.48 67.4239 32.704 67.2479C32.96 67.0559 33.088 66.7839 33.088 66.4799V56.7839C33.088 56.1279 33.04 55.4719 32.96 54.8319C32.384 50.2719 29.52 46.0479 25.28 43.5519L12.816 36.1919C12.768 36.1439 12.704 36.1279 12.656 36.1279ZM65.04 31.1519H64.976C60.896 31.1519 56.8 30.8319 52.768 30.1919C44.288 28.8479 35.696 28.8479 27.232 30.1759L27.104 30.1919C23.104 30.8159 19.008 31.1359 14.96 31.1359C14.176 31.1359 13.456 30.7359 13.04 30.0799C12.624 29.4239 12.56 28.5919 12.896 27.8879C15.28 22.7999 19.024 18.4959 23.744 15.4399C28.592 12.2879 34.208 10.6399 40.016 10.6399C45.824 10.6399 51.44 12.3039 56.288 15.4399C61.008 18.4959 64.752 22.7999 67.136 27.8879C67.472 28.5919 67.408 29.4239 66.992 30.0799C66.544 30.7519 65.824 31.1519 65.04 31.1519ZM39.968 27.2639C44.352 27.2639 48.72 27.6159 53.072 28.3039C56.992 28.9279 61.008 29.2479 64.976 29.2479H65.04C65.216 29.2479 65.312 29.1359 65.344 29.0719C65.392 29.0079 65.44 28.8799 65.36 28.7199C63.136 23.9679 59.616 19.9359 55.2 17.0719C50.672 14.1279 45.408 12.5759 39.984 12.5759C34.56 12.5759 29.296 14.1279 24.768 17.0719C20.352 19.9359 16.848 23.9679 14.608 28.7199C14.528 28.8799 14.592 29.0079 14.624 29.0719C14.672 29.1359 14.752 29.2479 14.928 29.2479C18.88 29.2479 22.864 28.9279 26.768 28.3199L26.896 28.3039C31.248 27.5999 35.616 27.2639 39.968 27.2639ZM47.84 69.3599C47.248 69.3599 46.656 69.1679 46.16 68.7999C45.424 68.2559 44.992 67.4079 44.992 66.4799V56.7839C44.992 56.4319 45.008 56.0799 45.024 55.7279C45.36 50.0639 48.64 44.8959 53.776 41.8719L66.208 34.5919C66.864 34.2079 67.664 34.1759 68.352 34.5119C69.04 34.8319 69.504 35.4879 69.616 36.2239C69.824 37.6639 69.936 39.1199 69.936 40.5759C69.936 47.1359 67.856 53.3599 63.92 58.5759C60.112 63.6319 54.688 67.4079 48.672 69.2319C48.384 69.3119 48.112 69.3599 47.84 69.3599ZM54.752 43.5359C50.16 46.2239 47.232 50.8319 46.944 55.8399C46.928 56.1599 46.912 56.4639 46.912 56.7839V66.4799C46.912 66.7839 47.056 67.0719 47.296 67.2479C47.536 67.4239 47.824 67.4719 48.096 67.3919C53.728 65.6959 58.8 62.1439 62.368 57.4239C66.048 52.5439 68 46.7039 68 40.5759C68 39.2159 67.904 37.8559 67.696 36.5119C67.68 36.3519 67.568 36.2719 67.504 36.2399C67.44 36.2079 67.312 36.1599 67.152 36.2559L54.752 43.5359Z" fill="#011546"/>
<path d="M40 48.7841C35.168 48.7841 31.216 44.8481 31.216 40.0001C31.216 35.1521 35.152 31.2161 40 31.2161C44.848 31.2161 48.784 35.1521 48.784 40.0001C48.784 44.8481 44.832 48.7841 40 48.7841ZM40 33.1361C36.224 33.1361 33.136 36.2081 33.136 40.0001C33.136 43.7921 36.208 46.8641 40 46.8641C43.792 46.8641 46.864 43.7921 46.864 40.0001C46.864 36.2081 43.776 33.1361 40 33.1361Z" fill="#F9383D"/>
</g>
<defs>
<clipPath id="clip0_2027_3375">
<rect width="80" height="80" fill="white"/>
</clipPath>
</defs>
</svg>
