<svg width="80" height="80" viewBox="0 0 80 80" fill="none" xmlns="http://www.w3.org/2000/svg">
<g clip-path="url(#clip0_2027_3381)">
<path d="M40 79.9841C29.312 79.9841 19.264 75.8241 11.712 68.2721C4.16 60.7041 0 50.6561 0 39.9841C0 29.3121 4.16 19.2481 11.712 11.6961C19.264 4.14413 29.312 -0.0158691 40 -0.0158691C50.688 -0.0158691 60.736 4.14413 68.288 11.6961C75.84 19.2481 80 29.2961 80 39.9841C80 50.6721 75.84 60.7201 68.288 68.2721C60.736 75.8241 50.688 79.9841 40 79.9841ZM40 1.90413C29.824 1.90413 20.272 5.87213 13.072 13.0561C5.872 20.2561 1.92 29.8081 1.92 39.9841C1.92 50.1601 5.888 59.7121 13.072 66.9121C20.272 74.1121 29.824 78.0641 40 78.0641C50.176 78.0641 59.728 74.0961 66.928 66.9121C74.128 59.7121 78.08 50.1601 78.08 39.9841C78.08 29.8081 74.112 20.2561 66.928 13.0561C59.728 5.85613 50.176 1.90413 40 1.90413Z" fill="#011546"/>
<path d="M33.344 54.3999C33.104 54.3999 32.848 54.304 32.672 54.112L19.12 40.5599C18.752 40.1919 18.752 39.5839 19.12 39.1999C19.488 38.8319 20.096 38.8319 20.48 39.1999L33.36 52.0799L59.568 25.8719C59.936 25.5039 60.544 25.5039 60.928 25.8719C61.296 26.2399 61.296 26.8479 60.928 27.2319L34.048 54.112C33.824 54.304 33.584 54.3999 33.344 54.3999Z" fill="#F9383D"/>
</g>
<defs>
<clipPath id="clip0_2027_3381">
<rect width="80" height="80" fill="white"/>
</clipPath>
</defs>
</svg>
